# xmcd CD database file
#
# Track frame offsets:
#	150
#	14505
#	28650
#
# Disc length: 568 seconds
#
# Revision: 1
# Processed by: cddbd v1.5.1PL0 Copyright (c) Steve Scherf et al.
# Submitted via: CDex 1.51
#
DISCID=1c023603
DTITLE=the Indigo - といかけ
DYEAR=2002
DGENRE=JPop
TTITLE0=といかけ
TTITLE1=願い事
TTITLE2=雨にぬれても
EXTD=YEAR: 2002
EXTT0=
EXTT1=
EXTT2=
PLAYORDER=
